<?xml version="1.0" encoding="UTF-8"?>
<svg width="677px" height="557px" viewBox="0 0 677 557" version="1.1" xmlns="http://www.w3.org/2000/svg" xmlns:xlink="http://www.w3.org/1999/xlink">
    <title>empty_plate</title>
    <defs>
        <path d="M173.962,0.807 C142.93,1.81 111.935,4.806 81.251,9.476 L81.251,9.476 C64.903,11.964 48.346,15.014 33.624,22.548 L33.624,22.548 C18.902,30.081 6.046,42.784 2.001,58.818 L2.001,58.818 C-1.847,74.072 2.808,90.662 12.03,103.408 L12.03,103.408 C21.252,116.152 34.623,125.394 48.821,132.17 L48.821,132.17 C73.754,144.072 102.277,151.126 122.252,171.316 L122.252,171.316 C145.847,195.167 140.256,230.124 171.936,248.644 L171.936,248.644 C189.406,258.857 209.891,262.412 229.961,264.999 L229.961,264.999 C254.186,268.123 278.794,270.096 302.997,266.811 L302.997,266.811 C324.216,263.932 346.76,256.816 363.561,243.046 L363.561,243.046 C378.841,230.518 387.977,211.535 404.84,200.651 L404.84,200.651 C431.841,183.225 464.372,193.699 492.963,200.262 L492.963,200.262 C525.991,207.844 558.63,211.25 590.193,196.128 L590.193,196.128 C620.936,181.397 645.528,155.68 663.014,126.417 L663.014,126.417 C670.5,113.89 676.958,99.898 676.053,85.332 L676.053,85.332 C674.341,57.754 654.408,34.193 630.029,22.767 L630.029,22.767 C596.997,7.285 568.708,21.708 536.655,31.649 L536.655,31.649 C460.536,55.256 378.141,21.753 302.939,9.06 L302.939,9.06 C267.918,3.149 232.442,0.433 196.93,0.433 L196.93,0.433 C189.273,0.433 181.619,0.559 173.962,0.807 L173.962,0.807 Z" id="path-1"></path>
    </defs>
    <g id="Page-1" stroke="none" stroke-width="1" fill="none" fill-rule="evenodd">
        <g id="empty_plate" transform="translate(0.000000, 2.000000)">
            <g id="Group-3" transform="translate(0.000000, 286.000000)">
                <g id="Fill-1-Clipped">
                    <mask id="mask-2" fill="white">
                        <use xlink:href="#path-1"></use>
                    </mask>
                    <g id="path-1"></g>
                    <polygon id="Fill-1" fill="#DDE0D9" fill-rule="nonzero" mask="url(#mask-2)" points="-5 272.931 681.439 272.931 681.439 -5.001 -5 -5.001"></polygon>
                </g>
            </g>
            <g id="Emptyplate" transform="translate(87.000000, 0.000000)">
                <path d="M402.01,291.77 C367.01,274 313.93,262.66 254.45,262.66 C194.97,262.66 141.85,274 106.89,291.77 C136.89,312.66 191.73,326.65 254.45,326.65 C317.17,326.65 372.03,312.66 402.01,291.77 Z" id="Path" stroke="#000000" stroke-width="3" fill="#F4C7EA" fill-rule="nonzero"></path>
                <ellipse id="Oval" stroke="#000000" stroke-width="3" cx="254.45" cy="271.15" rx="171.79" ry="71.5"></ellipse>
                <path d="M83.66,263.15 C65.56,299.87 44.42,335.68 28.01,373.23 C20.62,390.16 26.85,402.62 43.17,410.55 C103.71,439.98 171,452.82 237.95,455.63 C306.03,458.48 375.05,448.63 438.39,423 C442.816667,421.206667 447.213333,419.34 451.58,417.4 C464.2,411.78 481.45,404 480.48,387.55 C480.16,382.17 478.21,377.04 476.2,372.05 C461.2,334.78 442.12,299.7 425.2,263.29" id="Path" stroke="#000000" stroke-width="3"></path>
                <path d="M83.73,263.15 C93.29,298.87 166.07,326.65 254.45,326.65 C342.83,326.65 415.61,298.87 425.17,263.15 C425.871641,265.758841 426.23,268.448454 426.23,271.15 C426.23,310.64 349.32,342.65 254.44,342.65 C159.56,342.65 82.65,310.65 82.65,271.15 C82.65,268.448454 83.0083589,265.758841 83.71,263.15" id="Path" stroke="#000000" stroke-width="3" fill="#A07FE2" fill-rule="nonzero"></path>
                <path d="M402.01,291.75 C367.01,273.99 313.93,262.65 254.45,262.65 C194.97,262.65 141.85,273.99 106.88,291.75 C94.08,283.05 86.58,273.75 83.73,263.14 C93.29,227.42 166.07,199.64 254.45,199.64 C342.83,199.64 415.6,227.42 425.16,263.15 C422.41,273.42 414.1,283.26 402.01,291.75 Z" id="Path" stroke="#032268" stroke-width="3" fill="#6948AB" fill-rule="nonzero"></path>
                <path d="M425.18,263.15 C425.881641,265.758841 426.238015,268.448454 426.24,271.15 C426.24,310.64 349.33,342.65 254.45,342.65 C159.57,342.65 82.66,310.65 82.66,271.15 C82.6619852,268.448454 83.0183589,265.758841 83.72,263.15 L83.66,263.15 C65.56,299.87 44.42,335.68 28.01,373.23 C20.62,390.16 26.85,402.62 43.17,410.55 C103.71,439.98 171,452.82 237.95,455.63 C306.03,458.48 375.05,448.63 438.39,423 C442.816667,421.206667 447.213333,419.34 451.58,417.4 C464.2,411.78 481.45,404 480.48,387.55 C480.16,382.17 478.21,377.04 476.2,372.05 C461.2,334.78 442.12,299.7 425.2,263.29" id="Path" stroke="#032268" stroke-width="3" fill="#8B66D4" fill-rule="nonzero"></path>
                <path d="M346.89,402.15 C345.78,394.21 338.53,390.76 338.02,390.53 C343.530127,386.89047 345.885132,379.98759 343.748382,373.739231 C341.611633,367.490872 335.522913,363.47549 328.938001,363.972097 C322.353089,364.468704 316.93546,369.351848 315.76,375.85 C315.04,376.02 276.98,383 252.76,383.06 C228.54,383.12 190.45,376.06 189.76,375.85 C188.42353,369.110085 182.626789,364.174574 175.76,363.93 C169.234665,363.665191 163.347056,367.821891 161.412467,374.059477 C159.477877,380.297063 161.980042,387.055856 167.51,390.53 C167,390.76 159.75,394.21 158.64,402.15 C157.81,408.08 160.81,413.77 164.76,416.21 C171.4,420.33 183.54,416.99 191.19,405.54 C211.252355,410.100329 231.765929,412.378124 252.34,412.33 L253.27,412.33 C273.840807,412.378824 294.351147,410.101016 314.41,405.54 C322.07,416.99 334.2,420.33 340.85,416.21 C344.72,413.77 347.72,408.08 346.89,402.15 Z" id="Path" stroke="#032268" stroke-width="3" fill="#FFFFFF" fill-rule="nonzero"></path>
                <line x1="55.5" y1="183.5" x2="0.5" y2="128.5" id="Line-5" stroke="#A6A68F" stroke-width="4" stroke-linecap="round" stroke-linejoin="round"></line>
                <line x1="447.5" y1="177.5" x2="503.5" y2="121.5" id="Line" stroke="#A6A68F" stroke-width="4" stroke-linecap="round" stroke-linejoin="round"></line>
                <line x1="258.5" y1="111.5" x2="258.5" y2="0.5" id="Line-3" stroke="#A6A68F" stroke-width="4" stroke-linecap="round" stroke-linejoin="round"></line>
                <line x1="371.5" y1="129.5" x2="399.5" y2="65.5" id="Line-2" stroke="#A6A68F" stroke-width="4" stroke-linecap="round" stroke-linejoin="round"></line>
                <line x1="133.5" y1="130.5" x2="104.5" y2="70.5" id="Line-4" stroke="#A6A68F" stroke-width="4" stroke-linecap="round" stroke-linejoin="round"></line>
            </g>
        </g>
    </g>
</svg>